<svg width="37" height="37" viewBox="0 0 37 37" fill="none" xmlns="http://www.w3.org/2000/svg">
<path d="M26.7325 8.41766C26.3666 8.41766 26.0089 8.52616 25.7047 8.72944C25.4004 8.93273 25.1633 9.22166 25.0233 9.5597C24.8833 9.89774 24.8466 10.2697 24.918 10.6286C24.9894 10.9874 25.1656 11.3171 25.4243 11.5758C25.6831 11.8345 26.0127 12.0107 26.3716 12.0821C26.7304 12.1535 27.1024 12.1169 27.4404 11.9768C27.7785 11.8368 28.0674 11.5997 28.2707 11.2955C28.474 10.9912 28.5825 10.6336 28.5825 10.2677C28.5825 9.77701 28.3876 9.30646 28.0406 8.95952C27.6937 8.61257 27.2231 8.41766 26.7325 8.41766ZM33.8241 12.1485C33.7939 10.8694 33.5543 9.6039 33.115 8.40225C32.7247 7.37326 32.1144 6.44196 31.3266 5.6735C30.5632 4.88328 29.6301 4.27702 28.5979 3.90058C27.3995 3.44758 26.1325 3.20253 24.8516 3.176C23.2175 3.0835 22.6933 3.0835 18.5 3.0835C14.3066 3.0835 13.7825 3.0835 12.1483 3.176C10.8674 3.20253 9.60047 3.44758 8.40206 3.90058C7.3722 4.28176 6.44008 4.88737 5.67331 5.6735C4.88309 6.4369 4.27684 7.37001 3.9004 8.40225C3.44739 9.60065 3.20235 10.8676 3.17581 12.1485C3.08331 13.7827 3.08331 14.3068 3.08331 18.5002C3.08331 22.6935 3.08331 23.2177 3.17581 24.8518C3.20235 26.1327 3.44739 27.3997 3.9004 28.5981C4.27684 29.6303 4.88309 30.5634 5.67331 31.3268C6.44008 32.113 7.3722 32.7186 8.40206 33.0997C9.60047 33.5527 10.8674 33.7978 12.1483 33.8243C13.7825 33.9168 14.3066 33.9168 18.5 33.9168C22.6933 33.9168 23.2175 33.9168 24.8516 33.8243C26.1325 33.7978 27.3995 33.5527 28.5979 33.0997C29.6301 32.7233 30.5632 32.117 31.3266 31.3268C32.1164 30.56 32.727 29.6282 33.115 28.5981C33.5543 27.3964 33.7939 26.1309 33.8241 24.8518C33.8241 23.2177 33.9166 22.6935 33.9166 18.5002C33.9166 14.3068 33.9166 13.7827 33.8241 12.1485ZM31.0491 24.6668C31.0382 25.6455 30.861 26.6151 30.525 27.5343C30.2788 28.2053 29.8835 28.8115 29.3687 29.3072C28.8684 29.8164 28.2635 30.2109 27.5958 30.4635C26.6766 30.7995 25.7069 30.9767 24.7283 30.9877C23.1866 31.0647 22.6162 31.0802 18.5616 31.0802C14.5071 31.0802 13.9366 31.0802 12.395 30.9877C11.3788 31.0076 10.3668 30.8511 9.40415 30.5252C8.76619 30.259 8.18917 29.8655 7.70831 29.3689C7.19662 28.8737 6.8062 28.2669 6.56748 27.596C6.18984 26.6639 5.98103 25.6721 5.95081 24.6668C5.95081 23.1252 5.85831 22.5547 5.85831 18.5002C5.85831 14.4456 5.85831 13.8752 5.95081 12.3335C5.95644 11.3329 6.13911 10.3412 6.4904 9.40433C6.7618 8.75361 7.17839 8.17355 7.70831 7.7085C8.17532 7.17692 8.75454 6.75567 9.40415 6.47516C10.3436 6.13519 11.3342 5.95793 12.3333 5.951C13.875 5.951 14.4454 5.8585 18.5 5.8585C22.5546 5.8585 23.125 5.8585 24.6666 5.951C25.6453 5.96192 26.6149 6.13917 27.5341 6.47516C28.2347 6.73517 28.8635 7.15788 29.3687 7.7085C29.8724 8.18336 30.2669 8.76198 30.525 9.40433C30.8679 10.343 31.0453 11.3341 31.0491 12.3335C31.1262 13.8752 31.1416 14.4456 31.1416 18.5002C31.1416 22.5547 31.1262 23.1252 31.0491 24.6668ZM18.5 10.5914C16.9364 10.5945 15.4089 11.0609 14.1103 11.9318C12.8118 12.8026 11.8005 14.0389 11.2042 15.4843C10.608 16.9297 10.4536 18.5194 10.7605 20.0525C11.0674 21.5856 11.8218 22.9934 12.9285 24.0979C14.0352 25.2024 15.4444 25.9541 16.9781 26.2581C18.5119 26.562 20.1013 26.4045 21.5455 25.8054C22.9897 25.2064 24.224 24.1927 25.0923 22.8924C25.9607 21.5922 26.4241 20.0637 26.4241 18.5002C26.4262 17.4597 26.2225 16.4291 25.8248 15.4676C25.4271 14.5062 24.8433 13.6328 24.1068 12.8978C23.3704 12.1628 22.4959 11.5807 21.5337 11.1848C20.5714 10.789 19.5404 10.5873 18.5 10.5914ZM18.5 23.6339C17.4846 23.6339 16.4921 23.3328 15.6478 22.7687C14.8036 22.2046 14.1456 21.4028 13.757 20.4648C13.3685 19.5267 13.2668 18.4945 13.4649 17.4986C13.663 16.5028 14.1519 15.588 14.8699 14.8701C15.5878 14.1521 16.5026 13.6631 17.4984 13.4651C18.4943 13.267 19.5265 13.3686 20.4646 13.7572C21.4027 14.1458 22.2044 14.8038 22.7685 15.648C23.3326 16.4922 23.6337 17.4848 23.6337 18.5002C23.6337 19.1743 23.5009 19.8419 23.2429 20.4648C22.985 21.0876 22.6068 21.6536 22.1301 22.1303C21.6534 22.607 21.0874 22.9851 20.4646 23.2431C19.8417 23.5011 19.1742 23.6339 18.5 23.6339Z" fill="white" fill-opacity="0.9"/>
</svg>
