<svg width="33" height="33" viewBox="0 0 33 33" fill="none" xmlns="http://www.w3.org/2000/svg">
<path d="M16.5 32.2951C25.1256 32.2951 32.295 25.1409 32.295 16.5001C32.295 7.87449 25.1098 0.705078 16.4841 0.705078C7.84398 0.705078 0.705627 7.87449 0.705627 16.5001C0.705627 25.1409 7.85918 32.2951 16.5 32.2951ZM16.5007 29.6629C9.19052 29.6629 3.35179 23.8089 3.35179 16.5001C3.35179 9.20583 9.17466 3.33736 16.4841 3.33736C23.7778 3.33736 29.6462 9.20649 29.6621 16.5001C29.6773 23.8096 23.793 29.6629 16.4993 29.6629M12.7828 20.1552C16.3903 23.7785 20.9902 26.0699 23.7157 23.3597C23.8122 23.2645 23.9002 23.161 23.9786 23.0504C24.6909 22.2609 24.8924 21.2077 23.9786 20.5265C23.2664 20.0151 22.5079 19.4892 21.2221 18.5906C20.3242 17.9563 19.7355 18.1103 19.0391 18.8073L18.4194 19.4112C18.2337 19.5817 17.9397 19.5665 17.7382 19.4423C17.1964 19.1172 16.2826 18.3891 15.4151 17.5222C14.5634 16.6699 13.7898 15.7106 13.4951 15.1992C13.3867 15.0287 13.3094 14.7499 13.5261 14.549L14.13 13.8982C14.8271 13.1708 14.9817 12.6131 14.3315 11.6994L12.4267 9.00497C11.7759 8.0912 10.8317 8.26167 9.79375 9.03602C9.71645 9.09813 9.655 9.16024 9.5929 9.22169C6.86745 11.9471 9.17466 16.5464 12.7828 20.1545" fill="white" fill-opacity="0.9"/>
</svg>
