<svg width="24" height="24" viewBox="0 0 24 24" fill="none" xmlns="http://www.w3.org/2000/svg">
<path d="M11.9999 22.2455C17.5949 22.2455 22.2453 17.6049 22.2453 12.0001C22.2453 6.40507 17.5846 1.75464 11.9896 1.75464C6.38517 1.75464 1.75488 6.40507 1.75488 12.0001C1.75488 17.6049 6.39503 22.2455 11.9999 22.2455ZM12.0003 20.5381C7.2586 20.5381 3.47131 16.7409 3.47131 12.0001C3.47131 7.26864 7.24831 3.46207 11.9896 3.46207C16.7206 3.46207 20.5272 7.26907 20.5375 12.0001C20.5473 16.7414 16.7305 20.5381 11.9995 20.5381M9.58874 14.3709C11.9287 16.7212 14.9125 18.2075 16.6803 16.4495C16.7429 16.3878 16.8 16.3207 16.8509 16.2489C17.3129 15.7368 17.4436 15.0536 16.8509 14.6118C16.3889 14.2801 15.8969 13.9389 15.0629 13.3561C14.4805 12.9446 14.0986 13.0445 13.6469 13.4966L13.2449 13.8884C13.1245 13.9989 12.9337 13.9891 12.803 13.9085C12.4516 13.6976 11.8589 13.2254 11.2962 12.6631C10.7437 12.1102 10.2419 11.4879 10.0507 11.1562C9.98045 11.0456 9.93031 10.8648 10.0709 10.7345L10.4626 10.3124C10.9147 9.8405 11.015 9.47878 10.5933 8.88607L9.35774 7.13835C8.9356 6.54564 8.32317 6.65621 7.64988 7.1585C7.59974 7.19878 7.55988 7.23907 7.5196 7.27892C5.75174 9.04678 7.24831 12.0301 9.58874 14.3705" fill="#314975" fill-opacity="0.8"/>
</svg>
