<?xml version="1.0" encoding="UTF-8"?> <svg xmlns="http://www.w3.org/2000/svg" width="63" height="63" viewBox="0 0 63 63" fill="none"><circle cx="31.5" cy="31.5" r="31.5" fill="#FF93B5"></circle><g clip-path="url(#clip0_22_23)"><path d="M37.41 39.2499C37.1914 39.2528 36.9779 39.184 36.8021 39.054C36.6263 38.924 36.498 38.74 36.4367 38.5301C36.3755 38.3203 36.3847 38.0961 36.4629 37.892C36.5412 37.6879 36.6842 37.515 36.87 37.3999C37.78 36.8319 38.5273 36.0379 39.0392 35.0953C39.551 34.1527 39.81 33.0935 39.7909 32.021C39.7718 30.9486 39.4752 29.8993 38.93 28.9756C38.3848 28.0518 37.6097 27.285 36.68 26.7499C36.5605 26.6873 36.4549 26.6013 36.3695 26.4969C36.2841 26.3925 36.2207 26.2719 36.1832 26.1424C36.1456 26.0129 36.1346 25.8771 36.1509 25.7432C36.1671 25.6093 36.2103 25.4801 36.2778 25.3633C36.3453 25.2466 36.4357 25.1447 36.5436 25.0637C36.6515 24.9828 36.7746 24.9246 36.9056 24.8925C37.0366 24.8604 37.1728 24.8551 37.3059 24.877C37.4389 24.8989 37.5662 24.9475 37.68 25.0199C38.9039 25.7295 39.9237 26.7435 40.6404 27.9633C41.3571 29.1832 41.7463 30.5675 41.7705 31.9821C41.7946 33.3967 41.4528 34.7935 40.7782 36.0371C40.1036 37.2807 39.119 38.3288 37.92 39.0799C37.7687 39.182 37.5924 39.2408 37.41 39.2499Z" fill="white"></path><path d="M39.6202 45.1801C39.3963 45.1788 39.1793 45.1024 39.004 44.9631C38.8287 44.8237 38.7052 44.6296 38.6533 44.4118C38.6015 44.1939 38.6242 43.965 38.7179 43.7616C38.8117 43.5583 38.9709 43.3922 39.1702 43.2901C41.268 42.2565 43.032 40.6524 44.2597 38.662C45.4874 36.6716 46.1292 34.3754 46.1115 32.0368C46.0937 29.6983 45.4172 27.4121 44.1593 25.4405C42.9015 23.4689 41.1135 21.8918 39.0002 20.8901C38.8783 20.8353 38.7686 20.7567 38.6776 20.6588C38.5866 20.5608 38.5162 20.4457 38.4705 20.3201C38.4248 20.1945 38.4047 20.061 38.4114 19.9275C38.4182 19.794 38.4516 19.6632 38.5098 19.5429C38.568 19.4225 38.6497 19.3151 38.7501 19.2268C38.8505 19.1386 38.9676 19.0714 39.0944 19.0292C39.2212 18.987 39.3552 18.9706 39.4885 18.9811C39.6217 18.9916 39.7515 19.0286 39.8702 19.0901C42.3249 20.249 44.4032 22.0762 45.8668 24.3622C47.3304 26.6483 48.12 29.3006 48.145 32.0149C48.1701 34.7292 47.4296 37.3956 46.0084 39.7083C44.5873 42.0209 42.5431 43.8862 40.1102 45.0901C39.9571 45.161 39.7885 45.192 39.6202 45.1801Z" fill="white"></path><path d="M32.3298 18L23.0698 26H17.0698C16.8046 26 16.5503 26.1054 16.3627 26.2929C16.1752 26.4805 16.0698 26.7348 16.0698 27V36.92C16.0698 37.1853 16.1752 37.4396 16.3627 37.6272C16.5503 37.8147 16.8046 37.92 17.0698 37.92H22.8798L32.3398 46.16C32.4829 46.2858 32.659 46.3681 32.8472 46.3972C33.0355 46.4263 33.2282 46.4011 33.4026 46.3244C33.577 46.2477 33.7259 46.1228 33.8317 45.9643C33.9375 45.8059 33.9958 45.6205 33.9998 45.43V18.72C33.9956 18.5285 33.9364 18.3423 33.8294 18.1834C33.7223 18.0245 33.5719 17.8997 33.396 17.8239C33.2201 17.7481 33.0261 17.7243 32.8371 17.7556C32.6481 17.7868 32.472 17.8717 32.3298 18Z" fill="white"></path></g><defs><clipPath id="clip0_22_23"><rect width="36" height="36" fill="white" transform="translate(14 14)"></rect></clipPath></defs></svg> 