<?xml version="1.0" encoding="UTF-8"?> <svg xmlns="http://www.w3.org/2000/svg" width="63" height="63" viewBox="0 0 63 63" fill="none"><circle cx="31.5" cy="31.5" r="31.5" fill="#FF93B5"></circle><g clip-path="url(#clip0_22_24)"><path d="M38.87 20.6899C40.6295 21.5186 42.1697 22.749 43.3667 24.2819C44.5637 25.8147 45.384 27.6073 45.7615 29.5152C46.1389 31.4231 46.0631 33.3929 45.54 35.2662C45.017 37.1394 44.0613 38.8636 42.75 40.2999L44.17 41.7199C45.7076 40.0562 46.8319 38.054 47.4519 35.8751C48.072 33.6962 48.1703 31.402 47.7389 29.178C47.3076 26.9541 46.3587 24.863 44.9691 23.0739C43.5794 21.2848 41.7881 19.848 39.74 18.8799C39.5025 18.7731 39.2327 18.7632 38.988 18.8523C38.7433 18.9414 38.543 19.1224 38.4297 19.3568C38.3164 19.5913 38.299 19.8607 38.3812 20.1077C38.4635 20.3548 38.6388 20.5601 38.87 20.6799V20.6899Z" fill="white"></path><path d="M41.3 41.67L37.46 37.83L36.89 37.26L18.63 19L17.21 20.41L22.8 26H17C16.7348 26 16.4804 26.1054 16.2929 26.2929C16.1054 26.4804 16 26.7348 16 27V37C16 37.2652 16.1054 37.5196 16.2929 37.7071C16.4804 37.8946 16.7348 38 17 38H22.83L32.34 46.3C32.4844 46.4268 32.6622 46.5094 32.8523 46.5378C33.0424 46.5662 33.2366 46.5392 33.4117 46.46C33.5869 46.3809 33.7355 46.253 33.8398 46.0916C33.9441 45.9302 33.9998 45.7422 34 45.55V37.2L39.59 42.79C39.42 42.89 39.25 42.99 39.08 43.08C38.9625 43.1391 38.8577 43.2208 38.7718 43.3203C38.6858 43.4199 38.6203 43.5354 38.5789 43.6603C38.5376 43.7852 38.5213 43.917 38.5309 44.0482C38.5405 44.1794 38.5759 44.3075 38.635 44.425C38.6941 44.5425 38.7758 44.6473 38.8753 44.7332C38.9749 44.8192 39.0904 44.8847 39.2153 44.9261C39.3402 44.9674 39.472 44.9837 39.6032 44.9741C39.7344 44.9645 39.8625 44.9291 39.98 44.87C40.35 44.68 40.7 44.47 41.06 44.25L43.2 46.39L44.61 45L41.36 41.75L41.3 41.67Z" fill="white"></path><path d="M36.69 26.62C37.6313 27.1692 38.4131 27.9542 38.9584 28.8976C39.5038 29.841 39.7939 30.9103 39.8 32C39.7959 33.4318 39.2939 34.8177 38.38 35.92L39.8 37.34C41.0872 35.8584 41.7972 33.9626 41.8 32C41.7935 30.5607 41.412 29.148 40.693 27.9012C39.974 26.6544 38.9425 25.6165 37.7 24.89C37.5862 24.8176 37.459 24.769 37.3259 24.7471C37.1928 24.7253 37.0567 24.7305 36.9257 24.7626C36.7947 24.7947 36.6715 24.8529 36.5636 24.9339C36.4557 25.0148 36.3653 25.1167 36.2978 25.2334C36.2303 25.3502 36.1871 25.4794 36.1709 25.6133C36.1546 25.7472 36.1656 25.883 36.2032 26.0125C36.2407 26.142 36.3041 26.2626 36.3895 26.367C36.4749 26.4714 36.5805 26.5575 36.7 26.62H36.69Z" fill="white"></path><path d="M33.9999 18.6198C33.9997 18.4277 33.9441 18.2396 33.8397 18.0782C33.7354 17.9168 33.5868 17.7889 33.4117 17.7098C33.2365 17.6307 33.0423 17.6037 32.8522 17.6321C32.6622 17.6604 32.4843 17.743 32.3399 17.8698L25.9199 23.4698L33.9999 31.5398V18.6198Z" fill="white"></path></g><defs><clipPath id="clip0_22_24"><rect width="36" height="36" fill="white" transform="translate(14 14)"></rect></clipPath></defs></svg> 