<?xml version="1.0" encoding="UTF-8"?> <svg xmlns="http://www.w3.org/2000/svg" id="_Слой_2" data-name="Слой 2" viewBox="0 0 172.7 172.7"><defs><style> .cls-1 { fill: #fff; } .cls-2 { font-family: Lobster-Regular, Lobster; font-size: 21px; } .cls-2, .cls-3 { fill: #ff2d88; } </style></defs><g id="_Слой_1-2" data-name="Слой 1"><g><path class="cls-3" d="m163.61,97.41c0-.06.01-.13.02-.19.26.02.51.07.77.07,4.58,0,8.3-3.71,8.3-8.29s-3.71-8.3-8.3-8.3c-.08,0-.14.02-.22.02-.04-.53-.07-1.05-.12-1.58,3.83-.74,6.72-4.1,6.72-8.14,0-4.58-3.71-8.29-8.3-8.29-.58,0-1.13.06-1.68.16-.23-.75-.5-1.5-.76-2.25,3.03-1.24,5.16-4.2,5.16-7.67,0-4.58-3.71-8.3-8.3-8.3-1.43,0-2.75.4-3.92,1.03-.32-.51-.66-1.03-.99-1.55,1.94-1.51,3.21-3.85,3.21-6.51,0-4.58-3.71-8.29-8.3-8.29-2,0-3.82.74-5.26,1.92-.26-.26-.53-.5-.8-.77,1.09-1.41,1.77-3.15,1.77-5.06,0-4.59-3.71-8.3-8.3-8.3-2.62,0-4.93,1.24-6.45,3.14-.03-.02-.06-.05-.1-.07.54-1.1.87-2.32.87-3.62,0-4.59-3.71-8.3-8.3-8.3-3.27,0-6.07,1.91-7.42,4.66-.05-.02-.1-.03-.16-.06.18-.68.31-1.38.31-2.12,0-4.58-3.71-8.29-8.3-8.29-3.97,0-7.27,2.79-8.09,6.51-.49-.06-.97-.13-1.47-.19.01-.18.06-.34.06-.51,0-4.58-3.71-8.29-8.3-8.29s-8.3,3.71-8.3,8.29c0,.13.03.25.04.37-.06.01-.12.01-.18.01-.69-3.89-4.06-6.84-8.15-6.84-4.58,0-8.29,3.71-8.29,8.29,0,.67.1,1.31.25,1.93-.01.01-.03.01-.05.02-1.13-3.24-4.18-5.57-7.8-5.57-4.58,0-8.3,3.71-8.3,8.3,0,1.45.4,2.79,1.05,3.97-.07.05-.15.09-.22.13-1.44-2.45-4.08-4.1-7.12-4.1-4.58,0-8.3,3.71-8.3,8.29,0,2.14.83,4.06,2.16,5.54-.05.05-.1.11-.16.15-1.47-1.36-3.42-2.2-5.58-2.2-4.58,0-8.3,3.71-8.3,8.3,0,2.53,1.16,4.77,2.95,6.29-.09.13-.17.25-.26.37-1.26-.78-2.75-1.26-4.34-1.26-4.58,0-8.3,3.72-8.3,8.3,0,3.26,1.89,6.04,4.62,7.4-.05.12-.09.23-.15.36-.88-.33-1.82-.53-2.81-.53-4.58,0-8.29,3.71-8.29,8.29,0,3.95,2.75,7.22,6.43,8.07-.02.12-.04.23-.06.36-.41-.07-.82-.13-1.24-.13-4.58,0-8.3,3.71-8.3,8.29s3.71,8.3,8.3,8.3c.02,0,.04-.01.06-.01h0s-.05.01-.07.01c-4.58,0-8.3,3.71-8.3,8.29s3.71,8.3,8.3,8.3c.81,0,1.57-.15,2.31-.37.05.22.1.44.15.66-3.59.91-6.25,4.14-6.25,8.01,0,4.59,3.71,8.3,8.3,8.3.8,0,1.55-.15,2.28-.36-2.18,1.5-3.62,4-3.62,6.86,0,4.58,3.71,8.29,8.3,8.29,1.59,0,3.06-.47,4.32-1.24-1.25,1.45-2.04,3.31-2.04,5.39,0,4.59,3.71,8.3,8.3,8.3,2.52,0,4.75-1.15,6.27-2.93.08.07.15.13.22.19-1.03,1.38-1.67,3.08-1.67,4.94,0,4.58,3.71,8.29,8.3,8.29,2.7,0,5.07-1.3,6.59-3.3-.21.74-.35,1.49-.35,2.28,0,4.58,3.71,8.29,8.3,8.29,3.28,0,6.09-1.92,7.43-4.67-.02.23-.07.46-.07.7,0,4.58,3.71,8.29,8.3,8.29,4.22,0,7.67-3.16,8.19-7.24h.12s-.01.09-.01.13c0,4.59,3.71,8.3,8.3,8.3s8.3-3.71,8.3-8.3c0-.32-.06-.62-.1-.92.1-.02.21-.05.31-.06.83,3.7,4.13,6.47,8.08,6.47,4.58,0,8.3-3.71,8.3-8.29,0-.51-.06-1.02-.15-1.51,1.42,2.56,4.11,4.31,7.24,4.31,4.58,0,8.3-3.71,8.3-8.29,0-1.66-.5-3.21-1.34-4.5,0-.01,0-.01,0-.01,1.51,2,3.89,3.31,6.6,3.31,4.58,0,8.3-3.71,8.3-8.29,0-2.12-.82-4.03-2.13-5.49.07-.07.13-.14.19-.21,1.5,1.49,3.56,2.4,5.83,2.4,4.58,0,8.3-3.71,8.3-8.29,0-2.97-1.57-5.55-3.92-7.03.11-.18.23-.35.34-.53,1.24.75,2.68,1.21,4.23,1.21,4.58,0,8.3-3.72,8.3-8.3,0-2.68-1.29-5.03-3.26-6.54.18.01.35.05.53.05,4.58,0,8.3-3.71,8.3-8.29,0-4.2-3.13-7.63-7.17-8.18Z"></path><path class="cls-3" d="m159.25,96.79c.01-.06.01-.13.02-.19.24.02.48.08.73.08,4.32,0,7.83-3.51,7.83-7.83s-3.51-7.82-7.83-7.82c-.07,0-.14.01-.21.01-.03-.49-.07-1-.11-1.49,3.61-.7,6.34-3.86,6.34-7.68,0-4.32-3.51-7.82-7.83-7.82-.54,0-1.07.05-1.58.15-.22-.71-.47-1.42-.72-2.12,2.85-1.17,4.87-3.96,4.87-7.24,0-4.32-3.51-7.83-7.83-7.83-1.35,0-2.6.37-3.7.97-.3-.49-.62-.97-.93-1.45,1.83-1.43,3.03-3.64,3.03-6.15,0-4.32-3.5-7.82-7.83-7.82-1.89,0-3.61.7-4.96,1.81-.25-.25-.5-.48-.76-.73,1.03-1.34,1.67-2.97,1.67-4.79,0-4.32-3.51-7.82-7.83-7.82-2.47,0-4.65,1.17-6.08,2.96-.03-.02-.06-.05-.09-.07.51-1.03.82-2.18.82-3.42,0-4.32-3.51-7.82-7.83-7.82-3.09,0-5.73,1.79-7,4.39-.05-.02-.1-.03-.15-.06.17-.63.29-1.3.29-1.99,0-4.32-3.5-7.83-7.83-7.83-3.74,0-6.86,2.63-7.63,6.15-.46-.06-.92-.12-1.38-.18.01-.16.05-.32.05-.48,0-4.32-3.5-7.83-7.82-7.83s-7.83,3.51-7.83,7.83c0,.12.03.23.04.35-.06,0-.12.01-.18.01-.65-3.67-3.83-6.46-7.69-6.46-4.33,0-7.83,3.51-7.83,7.83,0,.63.09,1.23.23,1.83-.01,0-.03,0-.04.01-1.07-3.06-3.95-5.26-7.36-5.26-4.33,0-7.83,3.51-7.83,7.83,0,1.37.38,2.63,1,3.75-.07.05-.14.08-.21.13-1.36-2.31-3.85-3.88-6.72-3.88-4.32,0-7.82,3.5-7.82,7.82,0,2.01.78,3.84,2.03,5.22-.05.05-.1.09-.15.15-1.39-1.28-3.23-2.07-5.27-2.07-4.32,0-7.83,3.5-7.83,7.82,0,2.39,1.09,4.51,2.78,5.94-.08.12-.16.23-.25.35-1.19-.74-2.59-1.18-4.1-1.18-4.33,0-7.83,3.5-7.83,7.82,0,3.07,1.78,5.7,4.35,6.98-.05.12-.08.23-.13.34-.83-.29-1.72-.49-2.66-.49-4.32,0-7.82,3.5-7.82,7.83,0,3.71,2.59,6.8,6.07,7.61-.02.11-.04.22-.06.33-.38-.06-.77-.12-1.17-.12-4.32,0-7.83,3.5-7.83,7.83s3.5,7.82,7.83,7.82h.06s0,0,0,.01c-.02,0-.04-.01-.06-.01-4.32,0-7.83,3.5-7.83,7.83s3.5,7.82,7.83,7.82c.76,0,1.48-.14,2.18-.35.05.21.09.42.14.62-3.38.87-5.89,3.91-5.89,7.55,0,4.33,3.5,7.83,7.83,7.83.75,0,1.46-.14,2.15-.34-2.06,1.42-3.42,3.78-3.42,6.46,0,4.32,3.5,7.83,7.83,7.83,1.5,0,2.89-.44,4.08-1.18-1.18,1.38-1.92,3.14-1.92,5.09,0,4.32,3.5,7.82,7.83,7.82,2.38,0,4.48-1.08,5.92-2.75.07.06.14.12.21.18-.97,1.3-1.57,2.9-1.57,4.66,0,4.32,3.5,7.82,7.83,7.82,2.54,0,4.78-1.23,6.21-3.11-.2.69-.34,1.4-.34,2.15,0,4.32,3.51,7.82,7.83,7.82,3.09,0,5.74-1.8,7.01-4.41-.02.22-.07.43-.07.67,0,4.32,3.51,7.82,7.83,7.82,3.98,0,7.24-2.99,7.73-6.83.03,0,.07,0,.11.01,0,.03-.01.07-.01.12,0,4.32,3.5,7.82,7.83,7.82s7.83-3.5,7.83-7.82c0-.3-.06-.59-.09-.88.1-.02.19-.03.29-.06.78,3.5,3.9,6.11,7.63,6.11,4.32,0,7.83-3.5,7.83-7.82,0-.49-.06-.96-.15-1.42,1.34,2.41,3.88,4.06,6.83,4.06,4.32,0,7.83-3.5,7.83-7.83,0-1.56-.47-3.02-1.26-4.24,0,0,0-.01,0-.01,1.43,1.88,3.67,3.13,6.22,3.13,4.32,0,7.83-3.5,7.83-7.82,0-2-.77-3.81-2-5.19.06-.06.12-.13.18-.19,1.41,1.41,3.36,2.27,5.5,2.27,4.32,0,7.83-3.51,7.83-7.83,0-2.8-1.48-5.23-3.69-6.63.11-.16.21-.33.32-.49,1.17.7,2.53,1.12,4,1.12,4.32,0,7.83-3.5,7.83-7.82,0-2.53-1.21-4.75-3.07-6.18.17.01.33.05.5.05,4.32,0,7.83-3.5,7.83-7.82,0-3.96-2.95-7.2-6.77-7.72Z"></path></g><g><path class="cls-1" d="m152.07,95.76s.01-.11.02-.16c.22.02.43.06.65.06,3.9,0,7.06-3.16,7.06-7.05s-3.16-7.06-7.06-7.06c-.06,0-.12.02-.19.02-.03-.45-.06-.9-.1-1.34,3.26-.63,5.72-3.49,5.72-6.92,0-3.89-3.16-7.05-7.06-7.05-.49,0-.96.05-1.43.14-.2-.64-.42-1.27-.64-1.91,2.57-1.06,4.39-3.58,4.39-6.52,0-3.89-3.16-7.06-7.06-7.06-1.22,0-2.34.34-3.34.88-.27-.44-.56-.88-.84-1.31,1.65-1.28,2.73-3.28,2.73-5.54,0-3.89-3.16-7.05-7.06-7.05-1.71,0-3.25.63-4.47,1.63-.22-.22-.45-.43-.68-.66.93-1.2,1.51-2.68,1.51-4.3,0-3.9-3.16-7.06-7.06-7.06-2.23,0-4.19,1.06-5.49,2.67-.03-.02-.05-.04-.08-.06.46-.94.74-1.97.74-3.08,0-3.9-3.16-7.06-7.06-7.06-2.78,0-5.16,1.62-6.31,3.96-.04-.02-.09-.03-.14-.05.15-.58.26-1.18.26-1.8,0-3.89-3.16-7.05-7.06-7.05-3.37,0-6.19,2.37-6.88,5.54-.42-.05-.83-.11-1.25-.16.01-.15.05-.29.05-.44,0-3.89-3.16-7.05-7.06-7.05s-7.06,3.16-7.06,7.05c0,.11.03.21.03.32-.05,0-.1,0-.16,0-.58-3.31-3.46-5.82-6.93-5.82-3.9,0-7.05,3.16-7.05,7.05,0,.57.08,1.12.21,1.64-.01,0-.03,0-.04.02-.96-2.76-3.56-4.74-6.63-4.74-3.9,0-7.06,3.16-7.06,7.06,0,1.24.34,2.37.9,3.38-.06.04-.12.08-.19.11-1.23-2.08-3.47-3.49-6.06-3.49-3.9,0-7.06,3.16-7.06,7.05,0,1.82.71,3.46,1.83,4.71-.04.04-.09.09-.13.13-1.25-1.16-2.91-1.87-4.75-1.87-3.9,0-7.06,3.16-7.06,7.06,0,2.15.99,4.05,2.51,5.35-.07.11-.15.21-.22.32-1.08-.67-2.34-1.08-3.69-1.08-3.9,0-7.06,3.17-7.06,7.06,0,2.77,1.61,5.14,3.93,6.29-.04.1-.08.2-.12.31-.75-.28-1.55-.45-2.39-.45-3.9,0-7.05,3.16-7.05,7.05,0,3.36,2.34,6.14,5.47,6.86-.02.1-.04.2-.05.31-.35-.06-.7-.11-1.06-.11-3.9,0-7.06,3.16-7.06,7.05s3.16,7.06,7.06,7.06c.02,0,.04,0,.06,0h0s-.04,0-.06,0c-3.9,0-7.06,3.16-7.06,7.05s3.16,7.06,7.06,7.06c.68,0,1.34-.13,1.97-.32.04.19.08.38.13.56-3.05.78-5.31,3.53-5.31,6.81,0,3.9,3.16,7.06,7.06,7.06.68,0,1.32-.13,1.94-.31-1.86,1.27-3.08,3.41-3.08,5.84,0,3.89,3.16,7.05,7.06,7.05,1.35,0,2.6-.4,3.67-1.06-1.07,1.24-1.73,2.82-1.73,4.58,0,3.9,3.16,7.06,7.06,7.06,2.14,0,4.04-.98,5.33-2.49.06.06.13.11.19.16-.88,1.18-1.42,2.62-1.42,4.2,0,3.89,3.16,7.05,7.06,7.05,2.3,0,4.31-1.1,5.6-2.81-.18.63-.3,1.26-.3,1.94,0,3.89,3.16,7.05,7.06,7.05,2.79,0,5.18-1.63,6.32-3.97-.02.2-.06.39-.06.6,0,3.89,3.16,7.05,7.06,7.05,3.59,0,6.52-2.69,6.97-6.15h.1s0,.08,0,.11c0,3.9,3.16,7.06,7.06,7.06s7.06-3.16,7.06-7.06c0-.27-.05-.53-.08-.79.09-.02.17-.04.26-.05.71,3.15,3.51,5.51,6.87,5.51,3.9,0,7.06-3.16,7.06-7.05,0-.44-.05-.87-.13-1.28,1.2,2.18,3.5,3.67,6.15,3.67,3.9,0,7.06-3.16,7.06-7.05,0-1.41-.42-2.73-1.14-3.82,0-.01,0-.01,0-.01,1.29,1.7,3.31,2.82,5.61,2.82,3.89,0,7.06-3.16,7.06-7.05,0-1.8-.7-3.43-1.81-4.67.06-.06.11-.12.16-.18,1.27,1.26,3.03,2.04,4.96,2.04,3.9,0,7.06-3.16,7.06-7.05,0-2.53-1.34-4.72-3.33-5.98.1-.15.19-.3.29-.45,1.06.64,2.28,1.03,3.6,1.03,3.9,0,7.06-3.17,7.06-7.06,0-2.28-1.1-4.28-2.77-5.57.15.01.3.04.45.04,3.9,0,7.06-3.16,7.06-7.05,0-3.58-2.66-6.49-6.1-6.96Z"></path><path class="cls-1" d="m148.36,95.23s.01-.11.02-.16c.21.02.41.07.62.07,3.68,0,6.66-2.99,6.66-6.66s-2.98-6.65-6.66-6.65c-.06,0-.12.01-.18.01-.03-.42-.06-.85-.09-1.26,3.07-.6,5.4-3.29,5.4-6.53,0-3.67-2.98-6.65-6.66-6.65-.46,0-.91.04-1.34.13-.19-.61-.4-1.2-.61-1.8,2.43-1,4.14-3.37,4.14-6.15,0-3.67-2.98-6.66-6.66-6.66-1.15,0-2.21.32-3.15.83-.25-.42-.53-.83-.79-1.24,1.56-1.21,2.57-3.1,2.57-5.23,0-3.67-2.98-6.65-6.66-6.65-1.61,0-3.07.6-4.22,1.54-.21-.21-.43-.41-.64-.62.88-1.14,1.42-2.53,1.42-4.07,0-3.67-2.98-6.65-6.66-6.65-2.1,0-3.95,1-5.17,2.52-.03-.02-.05-.04-.08-.06.43-.88.7-1.85.7-2.91,0-3.67-2.98-6.65-6.66-6.65-2.63,0-4.87,1.52-5.96,3.73-.04-.02-.08-.03-.13-.05.15-.54.25-1.11.25-1.69,0-3.67-2.98-6.66-6.66-6.66-3.18,0-5.84,2.24-6.49,5.23-.39-.05-.78-.1-1.18-.15,0-.14.04-.27.04-.41,0-3.67-2.98-6.66-6.66-6.66s-6.66,2.99-6.66,6.66c0,.1.02.2.03.3-.05,0-.1.01-.15.01-.55-3.12-3.26-5.5-6.54-5.5-3.68,0-6.66,2.99-6.66,6.66,0,.54.08,1.05.2,1.55-.01,0-.03,0-.04,0-.91-2.6-3.36-4.47-6.26-4.47-3.68,0-6.66,2.99-6.66,6.66,0,1.17.32,2.24.85,3.19-.06.04-.12.07-.18.11-1.16-1.96-3.27-3.3-5.72-3.3-3.68,0-6.66,2.98-6.66,6.65,0,1.71.66,3.27,1.73,4.44-.04.04-.08.08-.13.13-1.18-1.09-2.74-1.76-4.48-1.76-3.68,0-6.66,2.98-6.66,6.65,0,2.03.93,3.83,2.37,5.05-.07.1-.14.2-.21.3-1.02-.63-2.2-1.01-3.49-1.01-3.68,0-6.66,2.98-6.66,6.65,0,2.61,1.52,4.85,3.7,5.94-.04.1-.07.2-.11.29-.71-.25-1.46-.42-2.26-.42-3.68,0-6.66,2.98-6.66,6.66,0,3.16,2.21,5.79,5.16,6.47-.02.09-.03.19-.05.28-.33-.05-.65-.1-1-.1-3.68,0-6.66,2.98-6.66,6.66s2.98,6.65,6.66,6.65h.05s0,0,0,.01c-.02,0-.03-.01-.05-.01-3.68,0-6.66,2.98-6.66,6.66s2.98,6.65,6.66,6.65c.65,0,1.26-.12,1.86-.3.04.18.08.36.12.53-2.88.74-5.01,3.33-5.01,6.42,0,3.69,2.98,6.66,6.66,6.66.64,0,1.25-.12,1.83-.29-1.75,1.21-2.91,3.22-2.91,5.5,0,3.67,2.98,6.66,6.66,6.66,1.28,0,2.45-.38,3.47-1.01-1.01,1.18-1.64,2.67-1.64,4.33,0,3.67,2.98,6.65,6.66,6.65,2.02,0,3.81-.92,5.03-2.34.06.05.12.1.18.15-.83,1.11-1.33,2.47-1.33,3.96,0,3.67,2.98,6.65,6.66,6.65,2.16,0,4.07-1.05,5.29-2.65-.17.59-.29,1.19-.29,1.83,0,3.67,2.98,6.65,6.66,6.65,2.63,0,4.88-1.53,5.97-3.75-.01.19-.06.37-.06.57,0,3.67,2.98,6.65,6.66,6.65,3.39,0,6.16-2.54,6.58-5.81.03,0,.06,0,.09.01,0,.03-.01.06-.01.1,0,3.67,2.98,6.65,6.66,6.65s6.66-2.98,6.66-6.65c0-.26-.05-.5-.08-.75.08-.02.16-.03.25-.05.67,2.98,3.31,5.2,6.49,5.2,3.68,0,6.66-2.98,6.66-6.65,0-.42-.05-.82-.12-1.2,1.14,2.05,3.3,3.46,5.81,3.46,3.68,0,6.66-2.98,6.66-6.66,0-1.32-.4-2.57-1.08-3.61,0,0,0,0,0,0,1.22,1.6,3.12,2.66,5.29,2.66,3.68,0,6.66-2.98,6.66-6.65,0-1.7-.65-3.24-1.7-4.41.05-.05.1-.11.15-.16,1.2,1.2,2.86,1.93,4.68,1.93,3.68,0,6.66-2.99,6.66-6.66,0-2.38-1.26-4.45-3.14-5.64.09-.14.18-.28.27-.42,1,.6,2.15.96,3.4.96,3.67,0,6.66-2.98,6.66-6.65,0-2.15-1.03-4.04-2.61-5.26.14.01.28.04.43.04,3.68,0,6.66-2.98,6.66-6.65,0-3.37-2.51-6.13-5.76-6.56Z"></path></g><g><text class="cls-2" transform="translate(44.37 68.31) rotate(-49.25)"><tspan x="0" y="0">B</tspan></text><text class="cls-2" transform="translate(52.83 58.83) rotate(-37.02)"><tspan x="0" y="0">I</tspan></text><text class="cls-2" transform="translate(58.42 54.23) rotate(-25.25)"><tspan x="0" y="0">R</tspan></text><text class="cls-2" transform="translate(69.13 49.23) rotate(-12.38)"><tspan x="0" y="0">T</tspan></text><text class="cls-2" transform="translate(78.18 46.91) rotate(1.28)"><tspan x="0" y="0">H</tspan></text><text class="cls-2" transform="translate(91.27 47.08) rotate(17.27)"><tspan x="0" y="0">D</tspan></text><text class="cls-2" transform="translate(103.71 50.82) rotate(33.16)"><tspan x="0" y="0">A</tspan></text><text class="cls-2" transform="translate(114.76 57.96) rotate(48.53)"><tspan x="0" y="0">Y</tspan></text></g><g><text class="cls-2" transform="translate(50.6 124.52) rotate(40.29)"><tspan x="0" y="0">P</tspan></text><text class="cls-2" transform="translate(62.88 134.15) rotate(18.24)"><tspan x="0" y="0">A</tspan></text><text class="cls-2" transform="translate(79.75 138.87) rotate(-2.93)"><tspan x="0" y="0">R</tspan></text><text class="cls-2" transform="translate(95.12 137.45) rotate(-20.17)"><tspan x="0" y="0">T</tspan></text><text class="cls-2" transform="translate(107.21 132.78) rotate(-37.38)"><tspan x="0" y="0">Y</tspan></text></g><path class="cls-3" d="m65.95,110.8c3.94-2.7,4.78-3.99,6.6-6.93s2.27-6.58,1.64-9.83h0s-3.57-.77-5.76.69c0,0-4.07,1.22-4.3-1.04l-.05-1.56s-1.21,0-.36-1.25l-.94-.65.63-1.46-1.43-1.36s2.26-2.87,2.26-3.41l-.07-.2s-1.09-.02-1.74-.8l1.65.1-.55-2.26s-2.21.53-1.73-1.41c.48-1.94,1.87-4.68,1.87-4.68,0,0,1.92-2.36,3.83-3.7s3.21-2.05,7.59-2.78c4.38-.73,7.44.64,7.44.64,0,0,2.29-6.41,8.44-7.76,6.15-1.35,9.52,1.48,9.52,1.48,0,0,4.65,3.37,1.74,10.32-2.91,6.95-8.84,10.71-4.56,16.38,4.28,5.67,10.19-.99,7.29-3.34-2.9-2.35-4.83,1.28-4.83,1.28,0,0-2.32-4.65,3.94-7.5,0,0,8.24-1.25,6.77,8.23-1.47,9.48-15.79,6.97-16.45,3.7,0,0-5.08-4.6-1.85-13.79,0,0,7.56-14.42-6.58-6.69,0,0,8.99,7.15-4.14,21.31,0,0-6.93,7.38,3.1,14.77,0,0-7.8,7.24-18.95,3.48Z"></path></g></svg> 